<svg width="25" height="24" viewBox="0 0 25 24" fill="none" xmlns="http://www.w3.org/2000/svg">
<g clip-path="url(#clip0_2987_700)">
<path d="M12.8115 13.5002C12.4137 13.5002 12.0322 13.3421 11.7509 13.0608C11.4696 12.7795 11.3115 12.398 11.3115 12.0002C11.3115 11.6024 11.4696 11.2208 11.7509 10.9395C12.0322 10.6582 12.4137 10.5002 12.8115 10.5002C13.2093 10.5002 13.5909 10.6582 13.8722 10.9395C14.1535 11.2208 14.3115 11.6024 14.3115 12.0002C14.3115 12.398 14.1535 12.7795 13.8722 13.0608C13.5909 13.3421 13.2093 13.5002 12.8115 13.5002ZM12.2835 16.4942C12.4585 16.7042 12.6345 16.9082 12.8115 17.1032C12.9885 16.9082 13.1645 16.7052 13.3395 16.4942C12.9876 16.5016 12.6355 16.5016 12.2835 16.4942ZM10.2885 16.3692C9.52058 16.2893 8.75772 16.1664 8.00352 16.0012C7.92852 16.3512 7.87152 16.6912 7.83352 17.0172C7.64352 18.6002 7.90852 19.5622 8.31152 19.7942C8.71452 20.0272 9.67952 19.7752 10.9565 18.8202C11.2195 18.6232 11.4845 18.4042 11.7505 18.1652C11.23 17.5943 10.7419 16.9947 10.2885 16.3692ZM17.6195 16.0012C16.9025 16.1612 16.1365 16.2852 15.3345 16.3692C14.8811 16.9947 14.393 17.5943 13.8725 18.1652C14.1385 18.4052 14.4035 18.6232 14.6665 18.8202C15.9435 19.7752 16.9085 20.0272 17.3115 19.7942C17.7145 19.5622 17.9785 18.6002 17.7905 17.0172C17.7492 16.6761 17.6925 16.3371 17.6205 16.0012H17.6195ZM19.0695 15.6142C19.6465 18.2532 19.3435 20.3542 18.0615 21.0942C16.7795 21.8342 14.8085 21.0462 12.8115 19.2272C10.8145 21.0462 8.84352 21.8332 7.56152 21.0932C6.27952 20.3532 5.97652 18.2532 6.55252 15.6132C3.97852 14.7942 2.31152 13.4802 2.31152 12.0002C2.31152 10.5202 3.97852 9.20717 6.55252 8.38617C5.97652 5.74717 6.27952 3.64618 7.56152 2.90618C8.84352 2.16618 10.8145 2.95417 12.8115 4.77318C14.8085 2.95417 16.7795 2.16718 18.0615 2.90718C19.3435 3.64718 19.6465 5.74717 19.0705 8.38718C21.6445 9.20617 23.3115 10.5202 23.3115 12.0002C23.3115 13.4802 21.6445 14.7932 19.0705 15.6142H19.0695ZM11.7495 5.83518C11.4952 5.60498 11.2306 5.38642 10.9565 5.18018C9.67952 4.22518 8.71452 3.97318 8.31152 4.20618C7.90852 4.43818 7.64452 5.40017 7.83252 6.98317C7.87252 7.31017 7.92852 7.64918 8.00252 7.99918C8.75705 7.83391 9.52025 7.71105 10.2885 7.63118C10.7635 6.97818 11.2535 6.37718 11.7505 5.83518H11.7495ZM15.3345 7.63118C16.1365 7.71518 16.9025 7.84018 17.6195 7.99918C17.6945 7.64918 17.7515 7.30918 17.7895 6.98317C17.9795 5.40017 17.7145 4.43818 17.3115 4.20618C16.9085 3.97318 15.9435 4.22518 14.6665 5.18018C14.3921 5.3864 14.1272 5.60496 13.8725 5.83518C14.3695 6.37718 14.8595 6.97818 15.3345 7.63118ZM13.3395 7.50618C13.1645 7.29618 12.9885 7.09218 12.8115 6.89717C12.6345 7.09218 12.4585 7.29518 12.2835 7.50618C12.6355 7.49871 12.9876 7.49871 13.3395 7.50618ZM9.18352 14.7042C9.00108 14.4033 8.82504 14.0985 8.65552 13.7902C8.56052 14.0472 8.47252 14.3002 8.39252 14.5512C8.64952 14.6072 8.91352 14.6582 9.18252 14.7042H9.18352ZM11.1155 14.9382C12.2446 15.022 13.3784 15.022 14.5075 14.9382C15.1447 14.0021 15.7116 13.0201 16.2035 12.0002C15.7116 10.9803 15.1447 9.99822 14.5075 9.06218C13.3784 8.97831 12.2446 8.97831 11.1155 9.06218C10.4783 9.99822 9.91143 10.9803 9.41952 12.0002C9.91143 13.0201 10.4783 14.0021 11.1155 14.9382ZM16.9675 10.2102C17.0625 9.95318 17.1505 9.70018 17.2305 9.44918C16.9684 9.39229 16.705 9.34127 16.4405 9.29617C16.6226 9.59708 16.7983 9.90182 16.9675 10.2102ZM6.94152 9.83717C6.60152 9.94718 6.27952 10.0672 5.97752 10.1972C4.51252 10.8252 3.81152 11.5352 3.81152 12.0002C3.81152 12.4652 4.51152 13.1752 5.97752 13.8032C6.27952 13.9332 6.60152 14.0532 6.94152 14.1632C7.16352 13.4632 7.43852 12.7372 7.76652 12.0002C7.45135 11.2951 7.17592 10.573 6.94152 9.83717ZM8.39152 9.44918C8.47252 9.69918 8.56052 9.95317 8.65552 10.2092C8.82505 9.90115 9.00109 9.59674 9.18352 9.29617C8.91352 9.34217 8.64952 9.39318 8.39252 9.44918H8.39152ZM18.6815 14.1632C19.0215 14.0532 19.3435 13.9332 19.6455 13.8032C21.1105 13.1752 21.8115 12.4652 21.8115 12.0002C21.8115 11.5352 21.1115 10.8252 19.6455 10.1972C19.3298 10.0627 19.0081 9.94255 18.6815 9.83717C18.4595 10.5372 18.1845 11.2632 17.8565 12.0002C18.1845 12.7372 18.4595 13.4622 18.6815 14.1632ZM17.2315 14.5512C17.1505 14.3012 17.0625 14.0472 16.9675 13.7912C16.798 14.0992 16.622 14.4036 16.4395 14.7042C16.7095 14.6582 16.9735 14.6072 17.2305 14.5512H17.2315Z" fill="#607B96"/>
</g>
<defs>
<clipPath id="clip0_2987_700">
<rect width="24" height="24" fill="white" transform="translate(0.811523)"/>
</clipPath>
</defs>
</svg>
