<svg width="17" height="15" viewBox="0 0 17 15" fill="none" xmlns="http://www.w3.org/2000/svg">
<path id="Vector" d="M1.44684 0.14209H16.0466C16.2617 0.14209 16.468 0.227544 16.6201 0.379654C16.7722 0.531764 16.8577 0.73807 16.8577 0.953186V13.9307C16.8577 14.1458 16.7722 14.3521 16.6201 14.5043C16.468 14.6564 16.2617 14.7418 16.0466 14.7418H1.44684C1.23172 14.7418 1.02542 14.6564 0.873307 14.5043C0.721197 14.3521 0.635742 14.1458 0.635742 13.9307V0.953186C0.635742 0.73807 0.721197 0.531764 0.873307 0.379654C1.02542 0.227544 1.23172 0.14209 1.44684 0.14209ZM4.69122 10.2808V7.03641L6.31342 8.6586L7.93561 7.03641V10.2808H9.5578V4.60312H7.93561L6.31342 6.22531L4.69122 4.60312H3.06903V10.2808H4.69122ZM13.6133 7.8475V4.60312H11.9911V7.8475H10.3689L12.8022 10.2808L15.2355 7.8475H13.6133Z" fill="#81A1C1"/>
</svg>
