<svg width="16" height="16" viewBox="0 0 16 16" fill="none" xmlns="http://www.w3.org/2000/svg">
<path d="M14.0384 4.78727C14.0446 4.92807 14.0446 5.06247 14.0446 5.20327C14.0508 9.47208 10.9144 14.4001 5.17895 14.4001C3.48731 14.4001 1.82655 13.8945 0.400391 12.9473C0.647344 12.9793 0.894298 12.9921 1.14125 12.9921C2.54271 12.9921 3.90713 12.5057 5.01225 11.6033C3.6787 11.5777 2.50567 10.6753 2.0982 9.35688C2.56741 9.45288 3.04897 9.43368 3.50583 9.29928C2.05498 9.00488 1.0116 7.68008 1.00543 6.13767C1.00543 6.12487 1.00543 6.11207 1.00543 6.09927C1.4376 6.34887 1.92533 6.48967 2.41924 6.50247C1.05482 5.55527 0.628823 3.66726 1.45612 2.18886C3.0428 4.21126 5.37651 5.43367 7.88309 5.56807C7.62996 4.44807 7.9757 3.27046 8.78447 2.47686C10.0378 1.25446 12.0134 1.31846 13.1988 2.61766C13.8964 2.47686 14.5694 2.20806 15.1806 1.83046C14.946 2.57926 14.4582 3.21286 13.81 3.61606C14.4274 3.53926 15.0324 3.36646 15.6004 3.11046C15.1806 3.76326 14.6496 4.32647 14.0384 4.78727Z" fill="#607B96"/>
</svg>
